<svg width="52" height="52" fill="none" xmlns="http://www.w3.org/2000/svg"><defs><clipPath id="a"><path fill="#fff" fill-opacity="0" d="M0 0h52v52H0z"/></clipPath></defs><g clip-path="url(#a)"><path d="M10.177 14.353A4.15 4.15 0 0 1 11.4 11.4a4.147 4.147 0 0 1 1.327-.895 4.134 4.134 0 0 1 1.626-.329c.566 0 1.108.11 1.626.329.5.211.942.51 1.328.894a4.152 4.152 0 0 1 1.223 2.954 4.14 4.14 0 0 1-.329 1.626c-.211.5-.51.942-.894 1.327a4.144 4.144 0 0 1-1.328.895 4.131 4.131 0 0 1-1.626.328 4.148 4.148 0 0 1-2.953-1.223 4.146 4.146 0 0 1-.895-1.327 4.13 4.13 0 0 1-.328-1.626Zm2 0a2.151 2.151 0 0 0 .638 1.539 2.156 2.156 0 0 0 1.538.637 2.152 2.152 0 0 0 1.54-.637 2.156 2.156 0 0 0 .637-1.54 2.157 2.157 0 0 0-.638-1.54 2.16 2.16 0 0 0-1.539-.636 2.154 2.154 0 0 0-1.538.638 2.165 2.165 0 0 0-.638 1.539ZM10.177 37.647A4.15 4.15 0 0 0 11.4 40.6c.385.386.827.684 1.327.895.518.22 1.06.329 1.626.329.566 0 1.108-.11 1.626-.329.5-.211.942-.51 1.328-.894a4.152 4.152 0 0 0 1.223-2.954 4.14 4.14 0 0 0-.329-1.626c-.211-.5-.51-.942-.894-1.327a4.144 4.144 0 0 0-1.328-.895 4.131 4.131 0 0 0-1.626-.328 4.148 4.148 0 0 0-2.953 1.223 4.146 4.146 0 0 0-.895 1.327 4.13 4.13 0 0 0-.328 1.626Zm2 0a2.151 2.151 0 0 1 .638-1.539 2.156 2.156 0 0 1 1.538-.637 2.152 2.152 0 0 1 1.54.637 2.156 2.156 0 0 1 .637 1.54 2.157 2.157 0 0 1-.638 1.54 2.16 2.16 0 0 1-1.539.636 2.154 2.154 0 0 1-1.538-.638 2.165 2.165 0 0 1-.638-1.539ZM41.823 14.353A4.15 4.15 0 0 0 40.6 11.4a4.147 4.147 0 0 0-1.327-.895 4.134 4.134 0 0 0-1.626-.329c-.566 0-1.108.11-1.626.329-.5.211-.942.51-1.328.894a4.152 4.152 0 0 0-1.223 2.954c0 .566.11 1.108.329 1.626.211.5.51.942.894 1.327.386.385.828.683 1.328.895.518.219 1.06.328 1.626.328a4.148 4.148 0 0 0 2.953-1.223c.385-.385.683-.828.895-1.327a4.13 4.13 0 0 0 .328-1.626Zm-2 0a2.151 2.151 0 0 1-.638 1.539 2.156 2.156 0 0 1-1.538.637 2.152 2.152 0 0 1-1.54-.637 2.156 2.156 0 0 1-.637-1.54 2.157 2.157 0 0 1 .638-1.54 2.16 2.16 0 0 1 1.539-.636 2.154 2.154 0 0 1 1.538.638 2.165 2.165 0 0 1 .638 1.539ZM41.823 37.647A4.15 4.15 0 0 1 40.6 40.6a4.147 4.147 0 0 1-1.327.895 4.134 4.134 0 0 1-1.626.329c-.566 0-1.108-.11-1.626-.329-.5-.211-.942-.51-1.328-.894a4.152 4.152 0 0 1-1.223-2.954c0-.566.11-1.108.329-1.626.211-.5.51-.942.894-1.327a4.144 4.144 0 0 1 1.328-.895 4.131 4.131 0 0 1 1.626-.328 4.148 4.148 0 0 1 2.953 1.223c.385.385.683.828.895 1.327.219.518.328 1.06.328 1.626Zm-2 0a2.151 2.151 0 0 0-.638-1.539 2.156 2.156 0 0 0-1.538-.637 2.152 2.152 0 0 0-1.54.637 2.156 2.156 0 0 0-.637 1.54 2.157 2.157 0 0 0 .638 1.54 2.16 2.16 0 0 0 1.539.636 2.154 2.154 0 0 0 1.538-.638 2.165 2.165 0 0 0 .638-1.539Z" fill="#000"/><path d="M31.59 12.42c.34-1.08.97-2.05 1.81-2.8.84-.76 1.87-1.28 2.98-1.5a6.345 6.345 0 0 1 6.09 2.1c.74.86 1.23 1.9 1.43 3.02.2 1.11.09 2.26-.3 3.32-.4 1.06-1.07 2-1.95 2.71-.88.72-1.93 1.19-3.05 1.36M38.22 31.32c1.11.1 2.18.49 3.09 1.14.92.64 1.64 1.52 2.11 2.54s.65 2.14.55 3.26a6.328 6.328 0 0 1-1.17 3.09c-.65.91-1.53 1.63-2.55 2.09a6.3 6.3 0 0 1-3.26.52 6.233 6.233 0 0 1-3.08-1.18 6.364 6.364 0 0 1-2.08-2.57M20.17 40.19a6.39 6.39 0 0 1-1.99 2.52c-.87.66-1.9 1.08-2.98 1.23-1.08.14-2.18.01-3.19-.39a6.357 6.357 0 0 1-3.65-8.03 6.386 6.386 0 0 1 4.69-4.1M13.7 20.67a6.452 6.452 0 0 1-3.1-1.19 6.407 6.407 0 0 1-2.08-2.59 6.366 6.366 0 0 1-.48-3.28c.13-1.12.56-2.19 1.23-3.09.68-.89 1.59-1.6 2.62-2.03 1.04-.44 2.18-.59 3.29-.44 1.12.15 2.18.59 3.07 1.28.89.69 1.57 1.61 1.99 2.65M16.47 16.47h5.82M16.47 36.08h5.29M29.17 21.04l1.51-5.62M29.17 31.47l1.51 5.67" stroke="#000" stroke-width="2"/><path d="M21.76 16.47h8.47L32.35 26l-2.12 9.52h-8.47L19.64 26l2.12-9.53Z" fill="#000"/></g></svg>