<svg width="52" height="52" fill="none" xmlns="http://www.w3.org/2000/svg"><circle cx="12.134" cy="38.133" r="3.467" fill="#000"/><circle cx="26" cy="38.133" r="3.467" fill="#000"/><circle cx="39.866" cy="38.133" r="3.467" fill="#000"/><path d="M22.53 43.33h6.93c1.92 0 3.47 1.55 3.47 3.47H19.06c0-1.92 1.55-3.47 3.47-3.47ZM8.66 43.33h6.93v3.47H5.19c0-1.92 1.56-3.47 3.47-3.47ZM36.39 43.33h6.94c1.91 0 3.46 1.55 3.46 3.47h-10.4v-3.47Z" fill="#000" fill-rule="evenodd"/><path d="M28.252 26.867h11.082a4 4 0 0 0 4-4v-12.8a4 4 0 0 0-4-4H12.666a4 4 0 0 0-4 4v12.8a4 4 0 0 0 4 4h11.082l.928 1.072L26 29.467l1.323-1.528.929-1.072ZM26 26.412l1.338-1.545h11.995c1.334 0 2-.667 2-2v-12.8c0-1.334-.666-2-2-2H12.668c-1.333 0-2 .666-2 2v12.8c0 1.333.667 2 2 2h11.995L26 26.412Z" clip-rule="evenodd" fill="#000" fill-rule="evenodd"/><path d="m19.93 13-3.47 3.46 3.47 3.47M32.06 19.93l3.47-3.47L32.06 13M25.13 13h2.16" stroke="#000" stroke-width="2"/></svg>