<svg width="52" height="52" fill="none" xmlns="http://www.w3.org/2000/svg"><defs><clipPath id="a"><path fill="#fff" fill-opacity="0" d="M0 0h52v52H0z"/></clipPath></defs><g clip-path="url(#a)"><path d="m20.51 24.38 3.5 3.5 6-6.5" stroke="#000" stroke-width="2"/><path d="M23.826 8.659c-2.467 2.366-6.795 4.112-12.987 5.237l-.802.146-.019.815c-.175 7.45 1.03 13.38 3.617 17.788 1.753 2.988 5.174 6.495 10.263 10.52l.677.535.629-.592.384-.362c5.215-4.91 8.649-8.756 10.3-11.54 2.62-4.415 3.83-9.867 3.63-16.356l-.027-.868-.863-.095c-5.954-.662-10.428-2.407-13.424-5.234L24.512 8l-.686.659Zm-11.822 7.053c-.065 6.689 1.054 11.996 3.356 15.921 1.55 2.643 4.585 5.785 9.103 9.425 4.94-4.669 8.175-8.292 9.705-10.872 2.308-3.89 3.43-8.695 3.368-14.417-5.551-.73-9.891-2.413-13.02-5.05-2.69 2.223-6.86 3.888-12.512 4.993Z" clip-rule="evenodd" fill="#000" fill-rule="evenodd"/><path d="m34.37 28.17-.75.52c-.23.17-.5.28-.79.33l-.89.16a2 2 0 0 0-1.62 1.62l-.16.89c-.05.29-.16.56-.33.8l-.52.74a2 2 0 0 0 0 2.29l.52.75c.17.23.28.5.33.79l.16.89a2 2 0 0 0 1.62 1.62l.89.16c.29.05.56.16.79.33l.75.52a2 2 0 0 0 2.29 0l.74-.52c.24-.17.51-.28.8-.33l.89-.16a2 2 0 0 0 1.62-1.62l.16-.89c.05-.29.16-.56.33-.79l.52-.75a2 2 0 0 0 0-2.29l-.52-.74c-.17-.24-.28-.51-.33-.8l-.16-.89a2 2 0 0 0-1.62-1.62l-.89-.16c-.29-.05-.56-.16-.8-.33l-.74-.52a2 2 0 0 0-2.29 0Z" fill="#000" fill-rule="evenodd"/></g></svg>