<svg xmlns="http://www.w3.org/2000/svg" version="1.1" x="0px" y="0px" viewBox="20 100 730 570"
     style="enable-background:new 0 0 800 800;" xml:space="preserve">
<g id="OBJECTS">
	<g>
			<ellipse transform="matrix(0.3858 -0.9226 0.9226 0.3858 -19.1143 658.2706)"
                     style="fill-rule:evenodd;clip-rule:evenodd;fill:#27AAE1;stroke:#1C75BC;stroke-miterlimit:10;"
                     cx="484.825" cy="343.491" rx="13.213" ry="13.213"/>
        <path style="fill-rule:evenodd;clip-rule:evenodd;fill:#27AAE1;stroke:#1C75BC;stroke-miterlimit:10;"
              d="M461.267,368.038    l-10.493-2.827c-0.344-0.093-0.71-0.044-1.017,0.135l-21.494,12.522c-0.477,0.278-1.076,0.233-1.506-0.113l0,0    c-0.577-0.464-0.665-1.31-0.195-1.883l18.771-22.9c0.318-0.388,0.827-0.564,1.317-0.457l27.78,6.114    c0.048,0.011,0.096,0.024,0.143,0.04l20.54,6.992c0.172,0.059,0.33,0.151,0.464,0.273l17.054,15.424    c0.476,0.43,1.191,0.46,1.701,0.071l16.922-12.9c0.588-0.449,1.43-0.332,1.874,0.26l0.009,0.012    c0.357,0.476,0.355,1.132-0.006,1.606l-19.01,24.98c-0.449,0.59-1.293,0.7-1.878,0.245L492.787,380.5    c-0.685-0.533-1.689-0.279-2.038,0.516l-13.008,29.618c-0.267,0.607-0.046,1.319,0.518,1.668l26.159,16.218    c0.387,0.24,0.625,0.66,0.63,1.116l0.607,48.517c0.009,0.742-0.589,1.348-1.331,1.349l-4.015,0.004    c-0.64,0.001-1.191-0.455-1.31-1.084l-7.841-41.293c-0.076-0.402-0.333-0.746-0.696-0.934l-26.268-13.622    c-0.371-0.193-0.811-0.2-1.189-0.019l-29.61,14.18l-4.747,2.444c-0.443,0.228-0.975,0.19-1.381-0.099l-25.137-17.86    c-0.528-0.375-0.71-1.076-0.43-1.661l0.522-1.092c0.28-0.586,0.942-0.884,1.566-0.707l23.065,6.554    c0.361,0.103,0.748,0.048,1.067-0.15l25.462-15.802c0.307-0.19,0.523-0.496,0.599-0.849l8.241-37.904    C462.374,368.913,461.953,368.223,461.267,368.038z"/>
	</g>
    <g>
		<path style="fill-rule:evenodd;clip-rule:evenodd;fill:#27AAE1;stroke:#1C75BC;stroke-miterlimit:10;"
              d="M306.379,338.312    c7.407,0,13.412,6.005,13.412,13.412c0,7.407-6.005,13.412-13.412,13.412c-7.408,0-13.413-6.005-13.413-13.412    C292.966,344.317,298.971,338.312,306.379,338.312z"/>
        <path style="fill-rule:evenodd;clip-rule:evenodd;fill:#27AAE1;stroke:#1C75BC;stroke-miterlimit:10;"
              d="M290.23,411.8    c-2.106-12.525-4.212-18.584-6.326-30.671c-0.04-0.229-0.117-0.457-0.225-0.663l-14.444-27.386    c-0.164-0.311-0.253-0.656-0.259-1.008l-0.418-23.149c-0.021-1.173,0.863-2.165,2.03-2.278l0,0    c1.082-0.105,2.093,0.575,2.381,1.624c1.538,5.599,3.616,18.532,4.286,22.118c0.069,0.37,0.231,0.713,0.47,1.004l14.571,17.775    c0.427,0.521,1.065,0.823,1.739,0.823h11.242h11.242c0.674,0,1.312-0.302,1.739-0.823l14.571-17.775    c0.238-0.291,0.401-0.634,0.47-1.004c0.67-3.586,2.748-16.52,4.286-22.118c0.288-1.048,1.299-1.729,2.381-1.624h0    c1.167,0.114,2.051,1.106,2.03,2.279l-0.419,23.149c-0.006,0.352-0.095,0.697-0.259,1.008l-14.444,27.386    c-0.109,0.206-0.185,0.433-0.225,0.663c-2.114,12.087-4.22,18.146-6.326,30.671c-0.043,0.256-0.042,0.523,0.003,0.779    l12.821,71.736c0.246,1.378-0.813,2.644-2.213,2.644h-1.934c-0.932,0-1.768-0.575-2.1-1.446l-19.521-51.134    c-0.736-1.929-3.465-1.929-4.201,0l-19.521,51.134c-0.333,0.871-1.168,1.447-2.1,1.447h-1.935c-1.4,0-2.46-1.266-2.213-2.644    l12.821-71.736C290.273,412.323,290.273,412.056,290.23,411.8z"/>
        <g>

				<rect x="249.206" y="322.96"
                      style="fill-rule:evenodd;clip-rule:evenodd;fill:#F7941E;stroke:#F15A29;stroke-miterlimit:10;"
                      width="114.344" height="2.151"/>
            <g>
				<g>

						<rect x="244.451" y="305.456"
                              style="fill-rule:evenodd;clip-rule:evenodd;fill:#F7941E;stroke:#F15A29;stroke-miterlimit:10;"
                              width="7.137" height="37.16"/>

                    <rect x="236.342" y="305.456"
                          style="fill-rule:evenodd;clip-rule:evenodd;fill:#F7941E;stroke:#F15A29;stroke-miterlimit:10;"
                          width="7.163" height="37.16"/>

                    <rect x="228.245" y="305.456"
                          style="fill-rule:evenodd;clip-rule:evenodd;fill:#F7941E;stroke:#F15A29;stroke-miterlimit:10;"
                          width="7.162" height="37.16"/>
				</g>
                <g>

						<rect x="377.374" y="305.456"
                              style="fill-rule:evenodd;clip-rule:evenodd;fill:#F7941E;stroke:#F15A29;stroke-miterlimit:10;"
                              width="7.137" height="37.16"/>

                    <rect x="369.265" y="305.456"
                          style="fill-rule:evenodd;clip-rule:evenodd;fill:#F7941E;stroke:#F15A29;stroke-miterlimit:10;"
                          width="7.163" height="37.16"/>

                    <rect x="361.168" y="305.456"
                          style="fill-rule:evenodd;clip-rule:evenodd;fill:#F7941E;stroke:#F15A29;stroke-miterlimit:10;"
                          width="7.162" height="37.16"/>
				</g>
			</g>
		</g>
	</g>
    <g>
		<path style="fill-rule:evenodd;clip-rule:evenodd;fill:#F7941E;stroke:#F15A29;stroke-miterlimit:10;"
              d="M603.337,181.229v16.295    c-3.738-0.298-6.767-3.121-7.387-6.76l-45.705-0.689l-46.336-0.698l46.336-0.699l45.706-0.688    C596.576,184.352,599.602,181.537,603.337,181.229z"/>
        <path style="fill-rule:evenodd;clip-rule:evenodd;fill:#27AAE1;stroke:#1C75BC;stroke-miterlimit:10;"
              d="M697.232,207.713    l11.771,37.026c0.09,0.283,0.236,0.545,0.43,0.77l25.881,30.121c0.842,0.98,0.667,2.471-0.38,3.229l-2.301,1.665    c-0.86,0.622-2.041,0.545-2.813-0.185l-29.776-28.165c-0.093-0.088-0.177-0.183-0.254-0.285l-16.019-21.509    c-0.636-0.854-1.791-1.133-2.747-0.663l-30.139,14.826c-0.745,0.366-1.221,1.119-1.234,1.949l-0.497,32.93    c-0.018,1.207-1.002,2.176-2.209,2.176h-1.416c-1.116,0-2.057-0.832-2.192-1.94l-4.723-38.548    c-0.09-0.736,0.195-1.468,0.759-1.949l29.516-25.177c0.815-0.695,1.014-1.875,0.472-2.798l-15.139-25.799    c-0.638-1.088-2.056-1.421-3.112-0.732l-16.358,10.667c-0.465,0.303-1.027,0.42-1.574,0.328l-25.413-4.282    c-1.027-0.173-1.794-1.04-1.84-2.081l0,0c-0.055-1.245,0.931-2.289,2.177-2.305l21.929-0.291c0.713-0.01,1.377-0.363,1.784-0.948    l13.721-19.739c0.202-0.291,0.471-0.528,0.784-0.693l12.447-6.559l6.002-3.2c0.289-0.154,0.607-0.242,0.934-0.257l8.753-0.417    l-0.046-0.121l0.569,0.096l0.178-0.008l0.018,0.042l27.7,4.683c0.339,0.057,0.66,0.193,0.938,0.396l21.646,15.867    c0.899,0.659,1.166,1.886,0.622,2.859l-0.339,0.606c-0.581,1.04-1.883,1.432-2.942,0.884l-23.21-11.996    c-0.305-0.158-0.643-0.242-0.986-0.246l-14.74-0.189c-1.59-0.02-2.68,1.595-2.066,3.061l15.365,36.721    C697.19,207.589,697.212,207.651,697.232,207.713z"/>
        <path style="fill-rule:evenodd;clip-rule:evenodd;fill:#27AAE1;stroke:#1C75BC;stroke-miterlimit:10;"
              d="M636.231,144.281    c0,7.372,5.979,13.344,13.341,13.344c7.366,0,13.344-5.971,13.344-13.344c0-7.373-5.978-13.339-13.344-13.339    C642.211,130.942,636.231,136.907,636.231,144.281z"/>
	</g>
    <g>
		<path style="fill-rule:evenodd;clip-rule:evenodd;fill:#27AAE1;stroke:#1C75BC;stroke-miterlimit:10;"
              d="M257.524,196.025    c0.007-0.253,0.059-0.503,0.154-0.739l13.284-32.981l0.153-0.417c0.516-1.401-0.529-2.884-2.022-2.87l-9.599,0.09    c-0.253,0.002-0.504,0.05-0.74,0.14l-20.081,7.656c-0.981,0.374-2.089-0.022-2.611-0.933l0,0c-0.586-1.022-0.232-2.325,0.79-2.911    l19.615-11.245c0.168-0.096,0.348-0.169,0.535-0.217l29.446-7.486c0.501-0.127,1.031-0.068,1.492,0.166l12.783,6.495    c0.41,0.208,0.742,0.544,0.946,0.956l8.404,16.99c0.516,1.043,1.772,1.48,2.823,0.983l11.749-5.55    c0.854-0.404,1.872-0.197,2.502,0.507l0.715,0.799c0.815,0.912,0.698,2.321-0.256,3.086l-18.639,14.942    c-0.877,0.703-2.15,0.605-2.908-0.225l-6.338-6.928c-0.989-1.081-2.749-0.866-3.449,0.422l-9.901,18.225    c-0.579,1.066-0.154,2.4,0.936,2.934l28.035,13.742c0.238,0.117,0.453,0.277,0.632,0.473l26.923,29.317    c0.921,1.003,0.68,2.6-0.497,3.286l-1.139,0.664c-0.769,0.449-1.736,0.372-2.425-0.191l-27.209-22.247    c-0.237-0.194-0.513-0.334-0.809-0.412l-33.505-8.794c-1.127-0.296-2.283,0.367-2.596,1.49l-6.474,23.197    c-0.06,0.214-0.153,0.418-0.276,0.604l-20.659,31.233c-0.44,0.665-1.215,1.03-2.008,0.944l-2.626-0.283    c-1.441-0.155-2.311-1.672-1.717-2.995l15.373-34.233c0.115-0.257,0.179-0.534,0.186-0.816L257.524,196.025z"/>
        <path style="fill-rule:evenodd;clip-rule:evenodd;fill:#27AAE1;stroke:#1C75BC;stroke-miterlimit:10;"
              d="M314.951,134.445    c0,6.72-5.448,12.162-12.162,12.162c-6.715,0-12.164-5.442-12.164-12.162c0-6.716,5.449-12.161,12.164-12.161    C309.503,122.284,314.951,127.729,314.951,134.445z"/>
        <path style="fill-rule:evenodd;clip-rule:evenodd;fill:#F7941E;stroke:#F15A29;stroke-miterlimit:10;"
              d="M363.324,226.268    c0,6.72-5.448,12.163-12.162,12.163c-6.715,0-12.164-5.442-12.164-12.163c0-6.716,5.449-12.161,12.164-12.161    C357.876,214.108,363.324,219.553,363.324,226.268z"/>
	</g>
    <g>
		<path style="fill-rule:evenodd;clip-rule:evenodd;fill:#F7941E;stroke:#F15A29;stroke-miterlimit:10;"
              d="M510.302,485.187    c-47.584,28.164-94.782,55.534-143.758,81.269C414.004,536.741,460.201,510.287,510.302,485.187z"/>
        <path style="fill-rule:evenodd;clip-rule:evenodd;fill:#27AAE1;stroke:#1C75BC;stroke-miterlimit:10;"
              d="M503.41,607.065    l16.69,16.094c1.519,1.464,2.532,3.373,2.896,5.451l4.771,27.315c0.245,1.401,1.462,2.424,2.884,2.424l0,0    c1.545,0,2.824-1.201,2.922-2.743l2.077-32.803c0.143-2.262-0.6-4.49-2.071-6.214l-27.464-32.173l-9.706-24.175l21.945-11.78    l17.66-16.558c0.742-0.696,0.901-1.813,0.382-2.688l0,0c-0.624-1.051-1.993-1.38-3.025-0.725l-17.791,11.274l-24.947,6.091    l-12.934,2.047l-27.635,0.38l-9.443-17.493c-0.534-0.988-1.759-1.37-2.759-0.859l0,0c-0.861,0.44-1.302,1.418-1.061,2.354    l4.73,18.425c0.944,3.679,3.715,6.614,7.334,7.769l19.41,6.194l18.853,32.308l-9.284,31.222c0,0-8.633,15.796-13.346,24.521    c-1.374,2.543,0.471,5.625,3.361,5.625l0,0c1.21,0,2.348-0.573,3.068-1.546l18.467-24.942L503.41,607.065z"/>
        <path style="fill-rule:evenodd;clip-rule:evenodd;fill:#27AAE1;stroke:#1C75BC;stroke-miterlimit:10;"
              d="M482.834,533.51    c0,6.22-5.046,11.266-11.27,11.266c-6.214,0-11.259-5.046-11.259-11.266c0-6.22,5.045-11.265,11.259-11.265    C477.789,522.245,482.834,527.291,482.834,533.51z"/>
	</g>
    <g>
		<path style="fill-rule:evenodd;clip-rule:evenodd;fill:#F7941E;stroke:#F15A29;stroke-miterlimit:10;"
              d="M381.522,646.497    v-16.202c0-6.046-4.911-10.937-10.941-10.937H252.346c-6.03,0-10.933,4.89-10.933,10.937v16.202H381.522z"/>
        <path style="fill-rule:evenodd;clip-rule:evenodd;fill:#F7941E;stroke:#F15A29;stroke-miterlimit:10;"
              d="M279.133,617.933    v-13.358c0-1.007-1.13-1.807-2.52-1.807c-1.398,0-2.525,0.799-2.525,1.807v13.358H279.133z"/>
        <path style="fill-rule:evenodd;clip-rule:evenodd;fill:#F7941E;stroke:#F15A29;stroke-miterlimit:10;"
              d="M345.465,617.925    v-13.366c0-0.986-1.127-1.797-2.525-1.797c-1.389,0-2.518,0.811-2.518,1.797v13.366H345.465z"/>
        <path style="fill-rule:evenodd;clip-rule:evenodd;fill:#27AAE1;stroke:#1C75BC;stroke-miterlimit:10;"
              d="M264.765,530.623    c0,7.408-6.007,13.415-13.418,13.415c-7.413,0-13.42-6.007-13.42-13.415c0-7.414,6.007-13.42,13.42-13.42    C258.758,517.204,264.765,523.21,264.765,530.623z"/>
        <path style="fill-rule:evenodd;clip-rule:evenodd;fill:#27AAE1;stroke:#1C75BC;stroke-miterlimit:10;"
              d="M389.289,579.503    l-77.704-25.369l-30.652-20.409c-5.423-4.548-12.108-2.296-15.963,2.968l-8.414,11.57c-0.96,1.308-1.716,2.767-2.213,4.27    c-0.383,0.776-0.612,1.642-0.632,2.56l0.049,0.116c-0.369,3.288,18.531,43.526,18.531,43.526c0.341,0.801,1.22,1.227,2.06,1    c0.854-0.232,1.4-1.067,1.267-1.943l-5.589-31.336l4.568,2.205l4.791,29.444c0,0-0.072,2.249,1.235,2.391    c1.604,0.179,1.975-1.786,1.975-1.786l0.722-25.839l12.179,5.879c3.157,1.698,4.75,6.25,15.968,7.1l71.831,10.208    c0,0,2.348-0.368,2.308-2.096c-0.039-2.027-2.421-2.868-2.421-2.868l-63.614-18.497c0.077-0.331,0.045-0.192,0.122-0.522    l69.708,12.395c0,0,2.348-0.283,2.308-2.013C391.671,580.429,389.289,579.503,389.289,579.503z"/>
	</g>
    <g>
		<g>
			<path style="fill-rule:evenodd;clip-rule:evenodd;fill:#F7941E;stroke:#F15A29;stroke-miterlimit:10;"
                  d="M587.721,609.752     c0-0.009,0.654,0.165,1.884,0.473c0.614,0.154,1.369,0.334,2.258,0.541c0.894,0.197,1.914,0.42,3.056,0.642     c4.585,0.894,11.129,1.777,18.982,1.711c7.854-0.025,17.019-1.031,26.835-2.929c9.817-1.869,20.288-4.551,30.759-7.05     c5.234-1.236,10.471-2.419,15.626-3.386c5.155-0.977,10.223-1.726,15.132-2.178c9.815-0.923,18.982-0.482,26.836,1.148     c3.924,0.798,7.525,1.878,10.717,3.053c3.188,1.181,5.97,2.463,8.259,3.66c1.146,0.595,2.171,1.165,3.06,1.687     c0.888,0.515,1.644,0.99,2.26,1.376c1.224,0.781,1.88,1.25,1.88,1.25s-0.656-0.174-1.88-0.482     c-0.616-0.151-1.372-0.33-2.26-0.533c-0.889-0.195-1.914-0.422-3.06-0.641c-2.289-0.434-5.072-0.89-8.259-1.209     c-3.192-0.336-6.793-0.515-10.717-0.491c-7.854,0.023-17.021,1.031-26.836,2.927c-4.909,0.932-9.977,2.071-15.132,3.283     c-5.155,1.213-10.392,2.508-15.626,3.75c-10.471,2.477-20.942,4.673-30.759,5.544c-9.816,0.92-18.981,0.479-26.835-1.15     c-7.853-1.587-14.396-4.302-18.982-6.699c-1.141-0.593-2.162-1.162-3.056-1.686c-0.889-0.515-1.644-0.985-2.258-1.372     C588.375,610.213,587.721,609.743,587.721,609.752z"/>
            <path style="fill-rule:evenodd;clip-rule:evenodd;fill:#F7941E;stroke:#F15A29;stroke-miterlimit:10;"
                  d="M587.721,627.921     c0,0,0.654,0.174,1.884,0.482c0.614,0.154,1.369,0.333,2.258,0.54c0.894,0.193,1.914,0.418,3.056,0.64     c4.585,0.895,11.129,1.778,18.982,1.71c7.854-0.018,17.019-1.029,26.835-2.925c9.817-1.874,20.288-4.552,30.759-7.05     c5.234-1.235,10.471-2.418,15.626-3.39c5.155-0.975,10.223-1.728,15.132-2.174c9.815-0.921,18.982-0.48,26.836,1.15     c3.924,0.792,7.525,1.875,10.717,3.05c3.188,1.181,5.97,2.464,8.259,3.661c1.146,0.595,2.171,1.161,3.06,1.688     c0.888,0.514,1.644,0.986,2.26,1.377c1.224,0.779,1.88,1.247,1.88,1.242c0,0.006-0.656-0.167-1.88-0.474     c-0.616-0.154-1.372-0.331-2.26-0.535c-0.889-0.197-1.914-0.42-3.06-0.642c-2.289-0.438-5.072-0.89-8.259-1.208     c-3.192-0.333-6.793-0.514-10.717-0.493c-7.854,0.023-17.021,1.034-26.836,2.927c-4.909,0.932-9.977,2.071-15.132,3.281     c-5.155,1.218-10.392,2.511-15.626,3.754c-10.471,2.477-20.942,4.674-30.759,5.544c-9.816,0.919-18.981,0.479-26.835-1.151     c-7.853-1.589-14.396-4.306-18.982-6.7c-1.141-0.594-2.162-1.163-3.056-1.687c-0.889-0.514-1.644-0.982-2.258-1.373     C588.375,628.388,587.721,627.921,587.721,627.921z"/>
		</g>
        <path style="fill-rule:evenodd;clip-rule:evenodd;fill:#27AAE1;stroke:#1C75BC;stroke-miterlimit:10;"
              d="M741.748,579.548    l-31.818,1.284c-0.128,0.005-0.257-0.001-0.384-0.02l-29.246-4.191c-0.617-0.089-1.164-0.446-1.493-0.976l-10.947-17.655l-0.001,0    l0.001,0l-34.795-14.143c-0.408-0.166-0.857-0.2-1.284-0.097l-40.583,9.706c-1.398,0.334-2.059,1.94-1.302,3.162l0,0    c0.381,0.614,1.05,0.991,1.773,0.997l37.358,0.332c0.251,0.002,0.5,0.049,0.734,0.139l11.402,4.357    c1.372,0.524,1.801,2.255,0.833,3.359l-30.429,34.736c-1.32,1.506,0.007,3.831,1.975,3.462l61.164-11.482    c0.1-0.019,0.201-0.03,0.303-0.034l34.926-1.425c0.108-0.004,0.215-0.017,0.321-0.038l32.171-6.334    c1.141-0.225,1.884-1.33,1.662-2.471l-0.187-0.962C743.703,580.23,742.788,579.506,741.748,579.548z"/>
        <path style="fill-rule:evenodd;clip-rule:evenodd;fill:#27AAE1;stroke:#1C75BC;stroke-miterlimit:10;"
              d="M704.559,559.406    c0,8.303-6.732,15.035-15.032,15.035c-8.307,0-15.038-6.732-15.038-15.035c0-8.304,6.731-15.035,15.038-15.035    C697.827,544.371,704.559,551.101,704.559,559.406z"/>
	</g>
    <g>
		<path style="fill-rule:evenodd;clip-rule:evenodd;fill:#27AAE1;stroke:#1C75BC;stroke-miterlimit:10;"
              d="M140.433,331.772    c0,6.504-5.277,11.783-11.783,11.783c-6.506,0-11.786-5.279-11.786-11.783c0-6.507,5.28-11.785,11.786-11.785    C135.155,319.987,140.433,325.265,140.433,331.772z"/>
        <path style="fill-rule:evenodd;clip-rule:evenodd;fill:#F7941E;stroke:#F15A29;stroke-miterlimit:10;"
              d="M163.228,300.406    c0-0.865,0.878-1.454,1.68-1.13c6.082,2.449,11.509,7.041,15.84,13.161c6.543,9.243,10.589,21.987,10.589,36.038    c0,14.052-4.047,26.795-10.589,36.038c-4.331,6.119-9.758,10.712-15.84,13.161c-0.802,0.323-1.68-0.266-1.68-1.131v0    c0-0.499,0.308-0.936,0.771-1.122c5.651-2.271,10.715-6.568,14.775-12.304c6.261-8.845,10.133-21.091,10.133-34.642    c0-13.55-3.872-25.797-10.133-34.642c-4.06-5.736-9.124-10.033-14.775-12.304C163.536,301.342,163.228,300.905,163.228,300.406    L163.228,300.406z"/>
        <path style="fill-rule:evenodd;clip-rule:evenodd;fill:#27AAE1;stroke:#1C75BC;stroke-miterlimit:10;"
              d="M187.255,346.584    l-60.236,0.032c-0.14,0.005-0.259,0.044-0.37,0.098l-5.37,0.062c-0.176,0.002-0.352-0.015-0.524-0.051l-6.592-1.383l1.786-0.46    c1.037-0.267,1.775-1.186,1.81-2.257l0.016-0.492c0.042-1.279-0.921-2.369-2.196-2.484l-13.443-1.208    c-0.084-0.008-0.164-0.012-0.248-0.012c-4.989,0.011-15.049,2.631-15.077,6.014c-0.008,0.934,0.706,1.666,1.844,2.239    l-0.002,0.002l24.965,16.073l0.053-0.114l1.588,39.106c0.014,0.34-0.044,0.678-0.171,0.994l-30.832,77.126    c-0.634,1.585,0.534,3.309,2.241,3.309l0,0c0.82,0,1.584-0.416,2.028-1.106l36.799-57.075c0.951-1.474,3.106-1.474,4.057,0    l37.387,57.987c0.444,0.689,1.208,1.106,2.028,1.106h0c1.707,0,2.875-1.724,2.241-3.309l-31.371-78.476    c-0.152-0.381-0.205-0.795-0.153-1.202l4.977-38.86c0.129-1.008,0.875-1.827,1.867-2.049l40.96-9.172    c-0.081,0.055,2.935-0.81,2.935-2.393C190.252,346.469,187.376,346.477,187.255,346.584z"/>
	</g>
    <g>
		<path style="fill-rule:evenodd;clip-rule:evenodd;fill:#27AAE1;stroke:#1C75BC;stroke-miterlimit:10;"
              d="M486.068,132.295    c0,6.774-5.489,12.258-12.253,12.258c-6.768,0-12.258-5.484-12.258-12.258c0-6.764,5.49-12.254,12.258-12.254    C480.579,120.041,486.068,125.531,486.068,132.295z"/>
        <path style="fill-rule:evenodd;clip-rule:evenodd;fill:#27AAE1;stroke:#1C75BC;stroke-miterlimit:10;"
              d="M465.8,194.547    l-0.038-22.183c-0.003-1.758-1.899-2.862-3.429-1.996l-11.885,6.724c-1.735,0.981-3.848,1.017-5.615,0.094l0,0    c-2.859-1.493-3.981-5.011-2.514-7.883l10.354-20.275c0.462-0.905,1.489-1.369,2.473-1.118l0,0    c1.147,0.292,1.85,1.448,1.582,2.601l-3.062,13.155l13.96-13.504c0.415-0.401,0.964-0.631,1.541-0.646l9.347-0.232l0.356-0.134    h35.18c0.711,0,1.383-0.33,1.818-0.892l13.374-17.297c0.646-0.836,1.778-1.123,2.745-0.697l0,0    c1.194,0.526,1.711,1.94,1.138,3.112l-11.758,24.051c-0.328,0.671-0.962,1.141-1.7,1.26l-20.153,3.234    c-0.986,0.158-1.757,0.935-1.908,1.922l-6.901,45.222c-0.01,0.066-0.023,0.131-0.039,0.196l-9.514,39.137    c-0.046,0.189-0.116,0.372-0.208,0.543l-20.598,38.414c-0.585,1.091-1.928,1.522-3.039,0.977l-0.454-0.223    c-1.033-0.507-1.531-1.7-1.166-2.792l12.758-38.141c0.059-0.177,0.096-0.36,0.111-0.545l1.755-21.884    c0.149-1.856-1.856-3.109-3.459-2.162l-21.292,12.576c-0.197,0.117-0.411,0.203-0.634,0.256l-27.702,6.624    c-1.249,0.299-2.5-0.484-2.778-1.738l-0.034-0.155c-0.228-1.028,0.273-2.079,1.214-2.551l26.843-13.458    c0.296-0.148,0.556-0.359,0.763-0.617l22.063-27.535C465.623,195.579,465.801,195.071,465.8,194.547z"/>
        <path style="fill-rule:evenodd;clip-rule:evenodd;fill:#F7941E;stroke:#F15A29;stroke-miterlimit:10;"
              d="M546.518,111.822    c0,5.782-4.685,10.462-10.458,10.462c-5.777,0-10.463-4.681-10.463-10.462c0-5.773,4.686-10.459,10.463-10.459    C541.833,101.363,546.518,106.049,546.518,111.822z"/>
	</g>
    <g>
		<path style="fill-rule:evenodd;clip-rule:evenodd;fill:#27AAE1;stroke:#1C75BC;stroke-miterlimit:10;"
              d="M183.237,572.11    c-3.611-4.016-8.199-7.042-11.096-11.596c-2.89-4.542-6.311-8.827-9.441-13.207c-4.614-6.455-9.228-12.911-13.842-19.366    c-0.402-0.563-1.016-0.938-1.7-1.039l-5.772-0.854c-0.771-0.114-1.551,0.131-2.119,0.664l-14.935,14.047l-13.912,14.104    c-0.315,0.319-0.709,0.55-1.142,0.668l-35.347,9.672c-1.645,0.45-2.392,2.357-1.491,3.804c0.524,0.843,1.486,1.305,2.471,1.184    c6.148-0.756,28.135-3.493,35.276-4.849l-1.171,2.035c-0.409,0.711-1.135,1.181-1.951,1.264l-28.246,2.869    c-1.94,0.197-2.949,2.411-1.824,4.005l0.487,0.691c0.49,0.694,1.294,1.099,2.144,1.078l36.357-0.885    c0.703-0.017,1.368-0.324,1.837-0.848c0,0,14.243-15.911,14.243-15.911l21.046,22.038c0.878,0.919,0.944,2.345,0.155,3.342    l-25.558,32.27c-0.176,0.222-0.314,0.472-0.407,0.739l-14.596,38.117c-1.061,2.771,0.985,5.746,3.952,5.746    c1.534,0,2.947-0.829,3.695-2.168l21.168-37.891c0.168-0.301,0.395-0.564,0.667-0.775l24.822-19.209    c1.427-1.104,3.518-0.417,4.011,1.319l8.561,30.125c0.08,0.282,0.208,0.548,0.379,0.786l19.142,26.748    c0.479,0.669,1.25,1.065,2.072,1.065h1.341c1.825,0,3.058-1.861,2.347-3.541l-15.268-36.081c-0.128-0.302-0.196-0.626-0.201-0.954    c-0.097-6.291-0.194-12.583-0.291-18.874c-0.138-8.934,1.748-18.318-2.998-26.465C185.276,574.558,184.298,573.291,183.237,572.11    z"/>
        <path style="fill-rule:evenodd;clip-rule:evenodd;fill:#F7941E;stroke:#F15A29;stroke-miterlimit:10;"
              d="M76.007,577.671    l-15.354-25.912c4.983-4.208,5.384-13.308,0.677-21.265c-5.086-8.6-14.22-12.604-20.388-8.952    c-6.176,3.661-7.058,13.589-1.957,22.192c4.636,7.843,12.638,11.839,18.691,9.716l15.378,25.973L76.007,577.671z M41.915,524.561    l2.414,4.076l-3.835,2.268l-1.366-2.307C39.682,526.936,40.612,525.541,41.915,524.561z M39.388,531.56l-0.857,0.507    c0.02-0.581,0.064-1.151,0.152-1.698L39.388,531.56z M40.046,532.673l2.422,4.092l-2.89,1.711    c-0.586-1.671-0.922-3.333-1.023-4.919L40.046,532.673z M41.152,532.018l3.834-2.271l2.424,4.093l-3.835,2.27L41.152,532.018z     M48.522,533.182l-2.425-4.093l3.42-2.025l2.424,4.095L48.522,533.182z M52.599,532.271l2.775,4.688l-3.416,2.023l-2.778-4.688    L52.599,532.271z M48.069,534.953l2.777,4.689l-3.834,2.271l-2.777-4.69L48.069,534.953z M51.503,540.754l2.676,4.518    l-3.835,2.271l-2.674-4.517L51.503,540.754z M52.617,540.094l3.415-2.024l2.676,4.52l-3.414,2.022L52.617,540.094z     M59.808,541.939l-2.675-4.521l3.39-2.009c0.704,1.828,1.122,3.644,1.251,5.365L59.808,541.939z M61.816,542.247    c-0.021,0.896-0.12,1.757-0.31,2.563l-1.043-1.762L61.816,542.247z M59.364,543.698l1.608,2.716    c-0.581,1.361-1.463,2.495-2.647,3.313l-2.374-4.007L59.364,543.698z M60.019,534.208l-3.544,2.1l-2.775-4.688l3.511-2.078    c0.584,0.752,1.138,1.558,1.647,2.418C59.297,532.702,59.676,533.454,60.019,534.208z M56.375,528.534l-3.333,1.973l-2.424-4.095    l2.001-1.185C53.935,526.094,55.207,527.204,56.375,528.534z M49.963,525.305l-1.088-1.838c0.828,0.23,1.661,0.575,2.485,1.011    L49.963,525.305z M47.206,523.16l1.655,2.796l-3.421,2.023l-2.426-4.095C44.305,523.24,45.728,523.013,47.206,523.16z     M40.048,539.701l3.079-1.823l2.777,4.691l-3.112,1.844c-0.503-0.66-0.984-1.353-1.425-2.097    C40.857,541.456,40.42,540.58,40.048,539.701z M43.616,545.428l2.946-1.746l2.674,4.517l-1.442,0.854    C46.317,548.132,44.897,546.911,43.616,545.428z M49.892,549.308l0.652,1.101c-0.485-0.172-0.969-0.388-1.451-0.627    L49.892,549.308z M52.315,550.873L51,548.652l3.835-2.271l2.362,3.989C55.712,551.041,54.04,551.186,52.315,550.873z"/>
        <path style="fill-rule:evenodd;clip-rule:evenodd;fill:#27AAE1;stroke:#1C75BC;stroke-miterlimit:10;"
              d="M137.71,519.342    c0,7.215-5.855,13.058-13.066,13.058c-7.213,0-13.058-5.843-13.058-13.058c0-7.222,5.845-13.064,13.058-13.064    C131.855,506.278,137.71,512.12,137.71,519.342z"/>
	</g>
    <g>
		<path style="fill-rule:evenodd;clip-rule:evenodd;fill:#F7941E;stroke:#F15A29;stroke-miterlimit:10;"
              d="M597.278,343.114    l71.006-29.505l-0.882-2.106l-73.936,30.72l0.015,0.016c-1.541,0.777-2.372,3.069-2.502,6.619    c-0.167,4.318-1.82,10.639,4.492,10.42c6.894-0.235,4.301-7.033,3.226-11.06C597.995,345.583,597.662,344.03,597.278,343.114z"/>
        <path style="fill-rule:evenodd;clip-rule:evenodd;fill:#27AAE1;stroke:#1C75BC;stroke-miterlimit:10;"
              d="M651.857,343.124    c0,6.434-5.217,11.648-11.651,11.648c-6.431,0-11.648-5.214-11.648-11.648c0-6.435,5.217-11.651,11.648-11.651    C646.64,331.474,651.857,336.689,651.857,343.124z"/>
        <path style="fill-rule:evenodd;clip-rule:evenodd;fill:#27AAE1;stroke:#1C75BC;stroke-miterlimit:10;"
              d="M684.994,402.646    L684.994,402.646l-5.2-11.756c-0.033-0.074-0.061-0.15-0.086-0.228l-8.268-26.315c-0.231-0.736-0.055-1.539,0.464-2.11    l17.661-19.442c0.726-0.799,0.754-2.01,0.067-2.842l-19.051-23.061c-0.612-0.741-1.639-0.991-2.523-0.615l-0.213,0.091    c-1.158,0.493-1.656,1.865-1.082,2.986l10.261,20.049c0.531,1.037,0.148,2.308-0.866,2.879l-2.457,1.385    c0.378-0.719,0.757-1.439,1.135-2.158c0.398-0.757,0.315-1.676-0.213-2.349l-14.063-17.944c-0.606-0.773-1.655-1.043-2.558-0.658    l0,0c-1.114,0.474-1.625,1.769-1.134,2.876l7.376,16.652c0.338,0.763,0.209,1.653-0.333,2.288    c-2.908,3.407-5.815,6.815-8.723,10.222c-0.199,0.234-0.446,0.422-0.724,0.553l-19.536,9.233    c-0.599,0.283-1.035,0.824-1.186,1.468l-1.268,5.428c-0.137,0.587-0.024,1.204,0.312,1.704l22.564,33.585    c0.259,0.386,0.388,0.844,0.367,1.309l-0.539,11.886c-0.005,0.1-0.016,0.2-0.034,0.299l-5.651,30.361    c-0.068,0.366-0.232,0.712-0.47,0.999c-7.959,9.557-15.379,17.664-22.922,27.286c-0.762,0.971-0.553,2.388,0.452,3.105    l2.799,1.996c0.819,0.584,1.931,0.529,2.689-0.133l29.776-26.02c0.316-0.276,0.545-0.637,0.659-1.04l8.54-30.016    c0.504-1.772,2.847-2.15,3.882-0.626l12.526,18.424c0.192,0.282,0.315,0.606,0.358,0.945l4.838,37.816    c0.151,1.181,1.226,2.02,2.409,1.88l1.529-0.181c1.042-0.124,1.846-0.975,1.91-2.023l2.528-41.413    c0.021-0.346-0.041-0.693-0.181-1.01L684.994,402.646z"/>
	</g>
    <g>
		<path style="fill-rule:evenodd;clip-rule:evenodd;fill:#27AAE1;stroke:#1C75BC;stroke-miterlimit:10;"
              d="M123.22,146.993    c0,6.698-5.423,12.123-12.117,12.123c-6.695,0-12.117-5.425-12.117-12.123c0-6.693,5.422-12.115,12.117-12.115    C117.797,134.878,123.22,140.3,123.22,146.993z"/>
        <path style="fill-rule:evenodd;clip-rule:evenodd;fill:#F7941E;stroke:#F15A29;stroke-miterlimit:10;"
              d="M94.804,147.854    c0,4.057-3.29,7.346-7.349,7.346c-4.059,0-7.349-3.289-7.349-7.346c0-4.059,3.29-7.351,7.349-7.351    C91.514,140.503,94.804,143.795,94.804,147.854z"/>
        <path style="fill-rule:evenodd;clip-rule:evenodd;fill:#27AAE1;stroke:#1C75BC;stroke-miterlimit:10;"
              d="M119.012,212.387    l0.065,23.85c0.001,0.389-0.097,0.773-0.286,1.114l-20.07,36.255c-0.844,1.524,0.258,3.394,2.001,3.394h0.904    c0.651,0,1.271-0.278,1.705-0.763l27.194-30.434c0.271-0.303,0.456-0.674,0.537-1.073l3.312-16.467    c0.432-2.146,3.342-2.517,4.299-0.548l23.32,47.997c0.383,0.788,1.181,1.287,2.057,1.287h1.999c1.524,0,2.621-1.462,2.196-2.925    l-20.777-71.49l-9.114-33.806c-0.26-0.966,0.138-1.99,0.982-2.526l43.12-27.371c0.913-0.579,1.295-1.718,0.917-2.731l-0.072-0.192    c-0.454-1.216-1.829-1.81-3.026-1.309l-50.857,21.308v0l-23.637,8.724c-0.046,0.017-0.091,0.035-0.136,0.055l-16.275,7.226    c-1.288,0.572-2.783-0.147-3.14-1.51l-3.566-13.608c-0.307-1.171-1.474-1.9-2.661-1.662l0,0c-1.03,0.206-1.787,1.089-1.835,2.138    l-1.084,23.877c-0.061,1.346,1.048,2.452,2.394,2.388l20.766-0.995c0.844-0.04,1.642,0.388,2.075,1.115l16.372,27.517    C118.9,211.576,119.011,211.977,119.012,212.387z"/>
	</g>
</g>
</svg>
